<svg width="24" height="24" viewBox="0 0 24 24" fill="none" xmlns="http://www.w3.org/2000/svg">
<path d="M11.5004 22.1657C9.93559 22.1657 8.59973 21.6278 7.49284 20.5521C6.38596 19.4763 5.83252 18.1584 5.83252 16.5983V5.78256C5.83252 4.67643 6.22407 3.73431 7.00717 2.95621C7.79025 2.17811 8.73434 1.78906 9.83942 1.78906C10.9612 1.78906 11.9103 2.17811 12.6868 2.95621C13.4633 3.73431 13.8515 4.68476 13.8515 5.80756V15.6874C13.8515 16.3487 13.6249 16.9101 13.1717 17.3717C12.7184 17.8333 12.1602 18.0641 11.4969 18.0641C10.8337 18.0641 10.2765 17.8176 9.82519 17.3247C9.37393 16.8317 9.14829 16.2443 9.14829 15.5624V5.73256H10.2858V15.6374C10.2858 15.9956 10.4033 16.301 10.6382 16.5536C10.8731 16.8063 11.1605 16.9326 11.5005 16.9326C11.8406 16.9326 12.1278 16.8104 12.3623 16.5661C12.5968 16.3219 12.714 16.029 12.714 15.6874V5.78256C12.714 4.98256 12.4349 4.30756 11.8765 3.75756C11.3182 3.20756 10.639 2.93256 9.83904 2.93256C9.03904 2.93256 8.35988 3.20756 7.80154 3.75756C7.24321 4.30756 6.96404 4.98256 6.96404 5.78256V16.6463C6.96404 17.8761 7.40845 18.9149 8.29727 19.7626C9.18609 20.6103 10.2534 21.0342 11.4992 21.0342C12.7616 21.0342 13.8333 20.6062 14.7143 19.7501C15.5953 18.8941 16.0358 17.8428 16.0358 16.5963V5.73256H17.1733V16.5733C17.1733 18.1334 16.619 19.4555 15.5105 20.5396C14.402 21.6237 13.0653 22.1657 11.5004 22.1657Z" fill="white"/>
</svg>
