<svg width="14" height="14" viewBox="0 0 14 14" fill="none" xmlns="http://www.w3.org/2000/svg">
<path d="M6.70893 13.0649C5.75777 13.0649 4.94666 12.7376 4.27561 12.0829C3.60457 11.4283 3.26904 10.6287 3.26904 9.68409V3.32258C3.26904 2.64595 3.5073 2.06951 3.9838 1.59327C4.4603 1.11703 5.03614 0.878906 5.71133 0.878906C6.39623 0.878906 6.9757 1.11703 7.44975 1.59327C7.9238 2.06951 8.16082 2.65081 8.16082 3.33716V9.12422C8.16082 9.53213 8.02069 9.87864 7.74044 10.1637C7.46019 10.4489 7.11473 10.5914 6.70406 10.5914C6.2934 10.5914 5.94932 10.4405 5.67181 10.1387C5.39431 9.83689 5.25556 9.47443 5.25556 9.0513V3.29341H6.02847V9.09505C6.02847 9.29726 6.09431 9.46976 6.22597 9.61256C6.35763 9.75535 6.51866 9.82674 6.70906 9.82674C6.89945 9.82674 7.06019 9.75778 7.19127 9.61985C7.32236 9.48191 7.3879 9.3167 7.3879 9.12422V3.32258C7.3879 2.85591 7.22505 2.46216 6.89936 2.14133C6.57367 1.82049 6.17748 1.66008 5.71082 1.66008C5.24415 1.66008 4.84797 1.82049 4.52228 2.14133C4.19658 2.46216 4.03373 2.85591 4.03373 3.32258V9.71041C4.03373 10.4384 4.29515 11.052 4.81798 11.5513C5.34082 12.0506 5.97055 12.3002 6.70717 12.3002C7.4535 12.3002 8.086 12.0481 8.60466 11.544C9.12331 11.0398 9.38264 10.4189 9.38264 9.68125V3.29341H10.1556V9.66951C10.1556 10.6141 9.81892 11.4161 9.14562 12.0756C8.47231 12.7351 7.66008 13.0649 6.70893 13.0649Z" fill="white"/>
</svg>
