<svg width="13" height="12" viewBox="0 0 13 12" fill="none" xmlns="http://www.w3.org/2000/svg">
<g clip-path="url(#clip0_3579_298761)">
<path d="M11.3789 5.21291C10.4661 4.30006 8.98598 4.30006 8.07313 5.21291L7.0699 6.21654C7.32158 5.31616 7.83547 4.85486 8.26209 4.42824C9.17533 3.515 9.17494 2.03489 8.26209 1.12204C7.80703 0.666977 7.21132 0.438669 6.61483 0.4375H6.60354C6.00744 0.438669 5.41134 0.666977 4.95628 1.12204C4.04343 2.03489 4.04343 3.515 4.95628 4.42824C5.38329 4.85486 5.89679 5.31616 6.14848 6.21654L5.14524 5.21291C4.23239 4.30006 2.75266 4.30006 1.83942 5.21291C0.926573 6.12615 0.926573 7.60588 1.83942 8.51911C2.75227 9.43157 4.23239 9.43157 5.14524 8.51911L6.30042 7.36393C6.30081 7.38653 6.30393 7.40523 6.30393 7.42861C6.32497 8.44119 6.16445 10.0378 5.05095 11.1517V11.5413H8.16781V11.1517C7.06016 10.044 6.90314 8.45912 6.91211 7.44536C6.91211 7.41575 6.91795 7.39276 6.91834 7.36393L8.07313 8.51911C8.98637 9.43157 10.4661 9.43157 11.3789 8.51911C12.2922 7.60588 12.2922 6.12576 11.3789 5.21291Z" fill="#A75C5D"/>
</g>
<defs>
<clipPath id="clip0_3579_298761">
<rect width="12" height="12" fill="white" transform="translate(0.500244)"/>
</clipPath>
</defs>
</svg>
