<svg width="16" height="16" viewBox="0 0 16 16" fill="none" xmlns="http://www.w3.org/2000/svg">
<path d="M13.4849 2.55026C13.3197 2.36621 13.0247 2.34326 12.8359 2.51576C12.1044 3.1369 11.4319 3.79248 10.7593 4.47107C10.0986 5.14975 9.44959 5.83983 8.82424 6.55293C7.90392 7.62257 7.01899 8.7383 6.19306 9.8885L3.19611 6.74846C3.05454 6.59891 2.81858 6.55294 2.62978 6.66791C2.40557 6.79443 2.3348 7.07052 2.46459 7.28897C2.46459 7.28897 5.31996 12.0853 5.43795 12.2923C5.55597 12.4879 5.81556 12.7984 6.34649 12.7984C6.86567 12.7984 7.14878 12.4994 7.31406 12.1888C7.49101 11.8668 9.07213 9.01429 10.0986 7.50753C10.6059 6.74838 11.1605 6.01225 11.7151 5.28765C12.2814 4.56301 12.8714 3.84991 13.4731 3.18279L13.4849 3.17132C13.6382 2.9758 13.6382 2.72274 13.4848 2.55017L13.4849 2.55026Z" fill="white"/>
</svg>
