<svg width="30" height="30" viewBox="0 0 30 30" fill="none" xmlns="http://www.w3.org/2000/svg">
<g clip-path="url(#clip0_3514_297402)">
<g filter="url(#filter0_i_3514_297402)">
<path d="M19.2625 20.7375L13.5375 15L19.2625 9.2625L17.5 7.5L10 15L17.5 22.5L19.2625 20.7375Z" fill="url(#paint0_linear_3514_297402)"/>
</g>
<path d="M19.4393 20.9143L19.6159 20.7377L19.4395 20.5609L13.8907 15L19.4395 9.43908L19.6159 9.26231L19.4393 9.08572L17.6768 7.32322L17.5 7.14645L17.3232 7.32322L9.82322 14.8232L9.64645 15L9.82322 15.1768L17.3232 22.6768L17.5 22.8536L17.6768 22.6768L19.4393 20.9143Z" stroke="#130C16" stroke-width="0.5"/>
</g>
<defs>
<filter id="filter0_i_3514_297402" x="9.29297" y="6.79297" width="10.6763" height="17.4141" filterUnits="userSpaceOnUse" color-interpolation-filters="sRGB">
<feFlood flood-opacity="0" result="BackgroundImageFix"/>
<feBlend mode="normal" in="SourceGraphic" in2="BackgroundImageFix" result="shape"/>
<feColorMatrix in="SourceAlpha" type="matrix" values="0 0 0 0 0 0 0 0 0 0 0 0 0 0 0 0 0 0 127 0" result="hardAlpha"/>
<feOffset dy="1.4"/>
<feGaussianBlur stdDeviation="0.5"/>
<feComposite in2="hardAlpha" operator="arithmetic" k2="-1" k3="1"/>
<feColorMatrix type="matrix" values="0 0 0 0 1 0 0 0 0 1 0 0 0 0 1 0 0 0 1 0"/>
<feBlend mode="normal" in2="shape" result="effect1_innerShadow_3514_297402"/>
</filter>
<linearGradient id="paint0_linear_3514_297402" x1="14.6313" y1="7.5" x2="14.6313" y2="22.5" gradientUnits="userSpaceOnUse">
<stop stop-color="white"/>
<stop offset="0.477083" stop-color="white"/>
<stop offset="1" stop-color="#7B7979"/>
</linearGradient>
<clipPath id="clip0_3514_297402">
<rect width="30" height="30" fill="white"/>
</clipPath>
</defs>
</svg>
