<svg width="21" height="22" viewBox="0 0 21 22" fill="none" xmlns="http://www.w3.org/2000/svg">
<g clip-path="url(#clip0_3692_299814)">
<g filter="url(#filter0_di_3692_299814)">
<path d="M10.8526 7.68995C10.6574 7.88521 10.3408 7.88521 10.1455 7.68995L6.76286 4.30729C6.56759 4.11203 6.25101 4.11203 6.05575 4.30729L3.80663 6.55641C3.61137 6.75167 3.61137 7.06825 3.80663 7.26352L7.18929 10.6462C7.38455 10.8414 7.38455 11.158 7.18929 11.3533L3.80636 14.7362C3.6111 14.9315 3.6111 15.2481 3.80636 15.4433L6.056 17.693C6.25126 17.8882 6.56784 17.8882 6.7631 17.693L10.146 14.31C10.3413 14.1148 10.6579 14.1148 10.8531 14.31L14.2365 17.6933C14.4317 17.8886 14.7483 17.8886 14.9436 17.6933L17.1927 15.4442C17.3879 15.249 17.3879 14.9324 17.1927 14.7371L13.8094 11.3538C13.6141 11.1585 13.6141 10.842 13.8094 10.6467L17.1929 7.26313C17.3882 7.06787 17.3882 6.75129 17.1929 6.55603L14.9433 4.30639C14.748 4.11113 14.4314 4.11113 14.2362 4.30639L10.8526 7.68995Z" fill="url(#paint0_linear_3692_299814)"/>
<path d="M10.8526 7.68995C10.6574 7.88521 10.3408 7.88521 10.1455 7.68995L6.76286 4.30729C6.56759 4.11203 6.25101 4.11203 6.05575 4.30729L3.80663 6.55641C3.61137 6.75167 3.61137 7.06825 3.80663 7.26352L7.18929 10.6462C7.38455 10.8414 7.38455 11.158 7.18929 11.3533L3.80636 14.7362C3.6111 14.9315 3.6111 15.2481 3.80636 15.4433L6.056 17.693C6.25126 17.8882 6.56784 17.8882 6.7631 17.693L10.146 14.31C10.3413 14.1148 10.6579 14.1148 10.8531 14.31L14.2365 17.6933C14.4317 17.8886 14.7483 17.8886 14.9436 17.6933L17.1927 15.4442C17.3879 15.249 17.3879 14.9324 17.1927 14.7371L13.8094 11.3538C13.6141 11.1585 13.6141 10.842 13.8094 10.6467L17.1929 7.26313C17.3882 7.06787 17.3882 6.75129 17.1929 6.55603L14.9433 4.30639C14.748 4.11113 14.4314 4.11113 14.2362 4.30639L10.8526 7.68995Z" stroke="#451C25" stroke-width="0.5"/>
</g>
</g>
<defs>
<filter id="filter0_di_3692_299814" x="2.40991" y="3.41016" width="16.1794" height="16.1797" filterUnits="userSpaceOnUse" color-interpolation-filters="sRGB">
<feFlood flood-opacity="0" result="BackgroundImageFix"/>
<feColorMatrix in="SourceAlpha" type="matrix" values="0 0 0 0 0 0 0 0 0 0 0 0 0 0 0 0 0 0 127 0" result="hardAlpha"/>
<feOffset dy="0.5"/>
<feGaussianBlur stdDeviation="0.5"/>
<feComposite in2="hardAlpha" operator="out"/>
<feColorMatrix type="matrix" values="0 0 0 0 0 0 0 0 0 0 0 0 0 0 0 0 0 0 0.25 0"/>
<feBlend mode="normal" in2="BackgroundImageFix" result="effect1_dropShadow_3692_299814"/>
<feBlend mode="normal" in="SourceGraphic" in2="effect1_dropShadow_3692_299814" result="shape"/>
<feColorMatrix in="SourceAlpha" type="matrix" values="0 0 0 0 0 0 0 0 0 0 0 0 0 0 0 0 0 0 127 0" result="hardAlpha"/>
<feOffset dy="1.4"/>
<feGaussianBlur stdDeviation="0.25"/>
<feComposite in2="hardAlpha" operator="arithmetic" k2="-1" k3="1"/>
<feColorMatrix type="matrix" values="0 0 0 0 1 0 0 0 0 1 0 0 0 0 1 0 0 0 1 0"/>
<feBlend mode="normal" in2="shape" result="effect2_innerShadow_3692_299814"/>
</filter>
<linearGradient id="paint0_linear_3692_299814" x1="10.4999" y1="3.59571" x2="10.4999" y2="18.0313" gradientUnits="userSpaceOnUse">
<stop stop-color="white"/>
<stop offset="0.477083" stop-color="white"/>
<stop offset="1" stop-color="#7B7979"/>
</linearGradient>
<clipPath id="clip0_3692_299814">
<rect width="21" height="21" fill="white" transform="translate(0 0.5)"/>
</clipPath>
</defs>
</svg>
