<svg width="21" height="21" viewBox="0 0 21 21" fill="none" xmlns="http://www.w3.org/2000/svg">
<g clip-path="url(#clip0_3514_297486)">
<g filter="url(#filter0_di_3514_297486)">
<path d="M10.8526 7.18995C10.6574 7.38521 10.3408 7.38521 10.1455 7.18995L6.76286 3.80729C6.56759 3.61203 6.25101 3.61203 6.05575 3.80729L3.80663 6.05641C3.61137 6.25167 3.61137 6.56825 3.80663 6.76352L7.18929 10.1462C7.38455 10.3414 7.38455 10.658 7.18929 10.8533L3.80636 14.2362C3.6111 14.4315 3.6111 14.7481 3.80636 14.9433L6.056 17.193C6.25126 17.3882 6.56784 17.3882 6.7631 17.193L10.146 13.81C10.3413 13.6148 10.6579 13.6148 10.8531 13.81L14.2365 17.1933C14.4317 17.3886 14.7483 17.3886 14.9436 17.1933L17.1927 14.9442C17.3879 14.749 17.3879 14.4324 17.1927 14.2371L13.8094 10.8538C13.6141 10.6585 13.6141 10.342 13.8094 10.1467L17.1929 6.76313C17.3882 6.56787 17.3882 6.25129 17.1929 6.05603L14.9433 3.80639C14.748 3.61113 14.4314 3.61113 14.2362 3.80639L10.8526 7.18995Z" fill="url(#paint0_linear_3514_297486)"/>
<path d="M10.8526 7.18995C10.6574 7.38521 10.3408 7.38521 10.1455 7.18995L6.76286 3.80729C6.56759 3.61203 6.25101 3.61203 6.05575 3.80729L3.80663 6.05641C3.61137 6.25167 3.61137 6.56825 3.80663 6.76352L7.18929 10.1462C7.38455 10.3414 7.38455 10.658 7.18929 10.8533L3.80636 14.2362C3.6111 14.4315 3.6111 14.7481 3.80636 14.9433L6.056 17.193C6.25126 17.3882 6.56784 17.3882 6.7631 17.193L10.146 13.81C10.3413 13.6148 10.6579 13.6148 10.8531 13.81L14.2365 17.1933C14.4317 17.3886 14.7483 17.3886 14.9436 17.1933L17.1927 14.9442C17.3879 14.749 17.3879 14.4324 17.1927 14.2371L13.8094 10.8538C13.6141 10.6585 13.6141 10.342 13.8094 10.1467L17.1929 6.76313C17.3882 6.56787 17.3882 6.25129 17.1929 6.05603L14.9433 3.80639C14.748 3.61113 14.4314 3.61113 14.2362 3.80639L10.8526 7.18995Z" stroke="#451C25" stroke-width="0.5"/>
</g>
</g>
<defs>
<filter id="filter0_di_3514_297486" x="2.40991" y="2.91016" width="16.1794" height="16.1797" filterUnits="userSpaceOnUse" color-interpolation-filters="sRGB">
<feFlood flood-opacity="0" result="BackgroundImageFix"/>
<feColorMatrix in="SourceAlpha" type="matrix" values="0 0 0 0 0 0 0 0 0 0 0 0 0 0 0 0 0 0 127 0" result="hardAlpha"/>
<feOffset dy="0.5"/>
<feGaussianBlur stdDeviation="0.5"/>
<feComposite in2="hardAlpha" operator="out"/>
<feColorMatrix type="matrix" values="0 0 0 0 0 0 0 0 0 0 0 0 0 0 0 0 0 0 0.25 0"/>
<feBlend mode="normal" in2="BackgroundImageFix" result="effect1_dropShadow_3514_297486"/>
<feBlend mode="normal" in="SourceGraphic" in2="effect1_dropShadow_3514_297486" result="shape"/>
<feColorMatrix in="SourceAlpha" type="matrix" values="0 0 0 0 0 0 0 0 0 0 0 0 0 0 0 0 0 0 127 0" result="hardAlpha"/>
<feOffset dy="1.4"/>
<feGaussianBlur stdDeviation="0.25"/>
<feComposite in2="hardAlpha" operator="arithmetic" k2="-1" k3="1"/>
<feColorMatrix type="matrix" values="0 0 0 0 1 0 0 0 0 1 0 0 0 0 1 0 0 0 1 0"/>
<feBlend mode="normal" in2="shape" result="effect2_innerShadow_3514_297486"/>
</filter>
<linearGradient id="paint0_linear_3514_297486" x1="10.4999" y1="3.09571" x2="10.4999" y2="17.5313" gradientUnits="userSpaceOnUse">
<stop stop-color="white"/>
<stop offset="0.477083" stop-color="white"/>
<stop offset="1" stop-color="#7B7979"/>
</linearGradient>
<clipPath id="clip0_3514_297486">
<rect width="21" height="21" fill="white"/>
</clipPath>
</defs>
</svg>
