<svg width="16" height="16" viewBox="0 0 16 16" fill="none" xmlns="http://www.w3.org/2000/svg">
<path d="M10.4502 11.2154L11.2002 10.4654L8.55016 7.7987V4.4487H7.55016V8.1987L10.4502 11.2154ZM8.00016 14.6654C7.08905 14.6654 6.22794 14.4904 5.41683 14.1404C4.60572 13.7904 3.89738 13.3126 3.29183 12.707C2.68627 12.1015 2.2085 11.3931 1.8585 10.582C1.5085 9.77092 1.3335 8.90981 1.3335 7.9987C1.3335 7.08759 1.5085 6.22648 1.8585 5.41536C2.2085 4.60425 2.68627 3.89592 3.29183 3.29036C3.89738 2.68481 4.60572 2.20703 5.41683 1.85703C6.22794 1.50703 7.08905 1.33203 8.00016 1.33203C8.91127 1.33203 9.77238 1.50703 10.5835 1.85703C11.3946 2.20703 12.1029 2.68481 12.7085 3.29036C13.3141 3.89592 13.7918 4.60425 14.1418 5.41536C14.4918 6.22648 14.6668 7.08759 14.6668 7.9987C14.6668 8.90981 14.4918 9.77092 14.1418 10.582C13.7918 11.3931 13.3141 12.1015 12.7085 12.707C12.1029 13.3126 11.3946 13.7904 10.5835 14.1404C9.77238 14.4904 8.91127 14.6654 8.00016 14.6654ZM8.00016 13.6654C9.55572 13.6654 10.8891 13.1098 12.0002 11.9987C13.1113 10.8876 13.6668 9.55425 13.6668 7.9987C13.6668 6.44314 13.1113 5.10981 12.0002 3.9987C10.8891 2.88759 9.55572 2.33203 8.00016 2.33203C6.44461 2.33203 5.11127 2.88759 4.00016 3.9987C2.88905 5.10981 2.3335 6.44314 2.3335 7.9987C2.3335 9.55425 2.88905 10.8876 4.00016 11.9987C5.11127 13.1098 6.44461 13.6654 8.00016 13.6654Z" fill="black"/>
</svg>
